<svg xmlns="http://www.w3.org/2000/svg" width="24" height="24" viewBox="0 0 24 24" fill="none"><path d="M2 7.48V5.48C2.72 5.48 3.44 5.34 4.12 5.07C5.97 4.33 8.02 4.33 9.87 5.07C11.23 5.61 12.76 5.61 14.12 5.07C15.97 4.33 18.02 4.33 19.87 5.07C20.55 5.34 21.27 5.48 22 5.48V7.48C21.02 7.48 20.05 7.29 19.12 6.92C17.76 6.38 16.23 6.38 14.87 6.92C13.02 7.66 10.97 7.66 9.12 6.92C7.76 6.38 6.23 6.38 4.87 6.92C3.94 7.29 2.97 7.48 2 7.48Z" fill="url(#c)"/><path d="M2 11.48V9.48C2.72 9.48 3.44 9.34 4.12 9.07C5.97 8.33 8.02 8.33 9.87 9.07C11.23 9.61 12.76 9.61 14.12 9.07C15.97 8.33 18.02 8.33 19.87 9.07C20.55 9.34 21.27 9.48 22 9.48V11.48C21.02 11.48 20.05 11.29 19.12 10.92C17.76 10.38 16.23 10.38 14.87 10.92C13.02 11.66 10.97 11.66 9.12 10.92C7.76 10.38 6.23 10.38 4.87 10.92C3.94 11.29 2.97 11.48 2 11.48Z" fill="url(#c)"/><path d="M2 15.48V13.48C2.72 13.48 3.44 13.34 4.12 13.07C5.97 12.33 8.02 12.33 9.87 13.07C11.23 13.61 12.76 13.61 14.12 13.07C15.97 12.33 18.02 12.33 19.87 13.07C20.55 13.34 21.27 13.48 22 13.48V15.48C21.02 15.48 20.05 15.29 19.12 14.92C17.76 14.38 16.23 14.38 14.87 14.92C13.02 15.66 10.97 15.66 9.12 14.92C7.76 14.38 6.23 14.38 4.87 14.92C3.94 15.29 2.97 15.48 2 15.48Z" fill="url(#c)"/><path d="M2 19.48V17.48C2.72 17.48 3.44 17.34 4.12 17.07C5.97 16.33 8.02 16.33 9.87 17.07C11.23 17.61 12.76 17.61 14.12 17.07C15.97 16.33 18.02 16.33 19.87 17.07C20.55 17.34 21.27 17.48 22 17.48V19.48C21.02 19.48 20.05 19.29 19.12 18.92C17.76 18.38 16.23 18.38 14.87 18.92C13.02 19.66 10.97 19.66 9.12 18.92C7.76 18.38 6.23 18.38 4.87 18.92C3.94 19.29 2.97 19.48 2 19.48Z" fill="url(#c)"/><defs><linearGradient id="c" x1="12" y1="4.51" x2="12" y2="19.48" gradientUnits="userSpaceOnUse"><stop stop-color="#FAFAFA"/><stop offset="1" stop-color="#E0E0E0"/></linearGradient></defs></svg>
