<svg xmlns="http://www.w3.org/2000/svg" width="24" height="24" viewBox="0 0 24 24" fill="none"><path d="M14.5 10C16.98 10 19 7.98 19 5.5C19 3.01 16.98 1 14.5 1C12.01 1 10 3.01 10 5.5C10 7.98 12.01 10 14.5 10Z" fill="url(#s)"/><path d="M8.5 7H17.5C19.98 7 22 9.01 22 11.5C22 13.98 19.98 16 17.5 16H8.5V7Z" fill="url(#b)"/><path d="M8.5 16C12.08 16 15 13.08 15 9.5C15 5.91 12.08 3 8.5 3C4.91 3 2 5.91 2 9.5C2 13.08 4.91 16 8.5 16Z" fill="url(#c)"/><mask id="m" style="mask-type:alpha" maskUnits="userSpaceOnUse" x="8" y="7" width="14" height="9"><path fill-rule="evenodd" clip-rule="evenodd" d="M8.5 16C12.08 16 15 13.08 15 9.5C15 8.61 14.82 7.76 14.50 7H17.5C19.98 7 22 9.01 22 11.5C22 13.98 19.98 16 17.5 16H8.5Z" fill="url(#d)"/></mask><g mask="url(#m)"><g filter="url(#f)"><path d="M8.5 16C12.08 16 15 13.08 15 9.5C15 5.91 12.08 3 8.5 3C4.91 3 2 5.91 2 9.5C2 13.08 4.91 16 8.5 16Z" fill="url(#c)"/></g></g><path d="M10 18.5C10 19.33 9.33 20 8.5 20C7.66 20 7 19.33 7 18.5C7 17.5 8.5 16.5 8.5 16.5C8.5 16.5 10 17.5 10 18.5Z" fill="url(#r1)"/><path d="M13.5 21.5C13.5 22.33 12.83 23 12 23C11.16 23 10.5 22.33 10.5 21.5C10.5 20.5 12 19.5 12 19.5C12 19.5 13.5 20.5 13.5 21.5Z" fill="url(#r2)"/><path d="M17 18.5C17 19.33 16.33 20 15.5 20C14.66 20 14 19.33 14 18.5C14 17.5 15.5 16.5 15.5 16.5C15.5 16.5 17 17.5 17 18.5Z" fill="url(#r1)"/><defs><filter id="f" x="-1.5" y="0" width="21" height="21" filterUnits="userSpaceOnUse" color-interpolation-filters="sRGB"><feFlood flood-opacity="0" result="B"/><feColorMatrix in="SourceAlpha" type="matrix" values="0 0 0 0 0 0 0 0 0 0 0 0 0 0 0 0 0 0 127 0" result="A"/><feOffset dx="0.5" dy="1"/><feGaussianBlur stdDeviation="2"/><feComposite in2="A" operator="out"/><feColorMatrix type="matrix" values="0 0 0 0 0 0 0 0 0 0 0 0 0 0 0 0 0 0 0.12 0"/><feBlend mode="normal" in2="B" result="E"/><feBlend mode="normal" in="SourceGraphic" in2="E" result="shape"/></filter><linearGradient id="b" x1="15.25" y1="7" x2="15.25" y2="16" gradientUnits="userSpaceOnUse"><stop stop-color="#FAFAFA"/><stop offset="1" stop-color="#E0E0E0"/></linearGradient><linearGradient id="c" x1="8.5" y1="3" x2="8.5" y2="16" gradientUnits="userSpaceOnUse"><stop stop-color="#FAFAFA"/><stop offset="1" stop-color="#E0E0E0"/></linearGradient><linearGradient id="d" x1="15.25" y1="7" x2="15.25" y2="16" gradientUnits="userSpaceOnUse"><stop offset="0.5" stop-color="white"/><stop offset="0.75" stop-color="white" stop-opacity="0"/></linearGradient><linearGradient id="s" x1="14.5" y1="1" x2="14.5" y2="10" gradientUnits="userSpaceOnUse"><stop stop-color="#FDC33B"/><stop offset="1" stop-color="#FCB13A"/></linearGradient><linearGradient id="r1" x1="8.5" y1="16.5" x2="8.5" y2="20" gradientUnits="userSpaceOnUse"><stop stop-color="#59BDFF"/><stop offset="1" stop-color="#0E9EFE"/></linearGradient><linearGradient id="r2" x1="12" y1="19.5" x2="12" y2="23" gradientUnits="userSpaceOnUse"><stop stop-color="#59BDFF"/><stop offset="1" stop-color="#0E9EFE"/></linearGradient></defs></svg>
