<svg xmlns="http://www.w3.org/2000/svg" width="24" height="24" viewBox="0 0 24 24" fill="none"><path d="M8.5 7H17.5C19.98 7 22 9.01 22 11.5C22 13.98 19.98 16 17.5 16H8.5V7Z" fill="url(#b)"/><path d="M8.5 16C12.08 16 15 13.08 15 9.5C15 5.91 12.08 3 8.5 3C4.91 3 2 5.91 2 9.5C2 13.08 4.91 16 8.5 16Z" fill="url(#c)"/><mask id="m" style="mask-type:alpha" maskUnits="userSpaceOnUse" x="8" y="7" width="14" height="9"><path fill-rule="evenodd" clip-rule="evenodd" d="M8.5 16C12.08 16 15 13.08 15 9.5C15 8.61 14.82 7.76 14.50 7H17.5C19.98 7 22 9.01 22 11.5C22 13.98 19.98 16 17.5 16H8.5Z" fill="url(#d)"/></mask><g mask="url(#m)"><g filter="url(#f)"><path d="M8.5 16C12.08 16 15 13.08 15 9.5C15 5.91 12.08 3 8.5 3C4.91 3 2 5.91 2 9.5C2 13.08 4.91 16 8.5 16Z" fill="url(#c)"/></g></g><path d="M9.5 17L7.5 20H9L7 23L12.5 18.5H10.5L11.5 17H9.5Z" fill="url(#l1)"/><path d="M14.66 17L13.33 19H14.33L13 21L16.66 18H15.33L16 17H14.66Z" fill="url(#l2)"/><defs><filter id="f" x="-1.5" y="0" width="21" height="21" filterUnits="userSpaceOnUse" color-interpolation-filters="sRGB"><feFlood flood-opacity="0" result="B"/><feColorMatrix in="SourceAlpha" type="matrix" values="0 0 0 0 0 0 0 0 0 0 0 0 0 0 0 0 0 0 127 0" result="A"/><feOffset dx="0.5" dy="1"/><feGaussianBlur stdDeviation="2"/><feComposite in2="A" operator="out"/><feColorMatrix type="matrix" values="0 0 0 0 0 0 0 0 0 0 0 0 0 0 0 0 0 0 0.12 0"/><feBlend mode="normal" in2="B" result="E"/><feBlend mode="normal" in="SourceGraphic" in2="E" result="shape"/></filter><linearGradient id="b" x1="15.25" y1="7" x2="15.25" y2="16" gradientUnits="userSpaceOnUse"><stop stop-color="#FAFAFA"/><stop offset="1" stop-color="#E0E0E0"/></linearGradient><linearGradient id="c" x1="8.5" y1="3" x2="8.5" y2="16" gradientUnits="userSpaceOnUse"><stop stop-color="#FAFAFA"/><stop offset="1" stop-color="#E0E0E0"/></linearGradient><linearGradient id="d" x1="15.25" y1="7" x2="15.25" y2="16" gradientUnits="userSpaceOnUse"><stop offset="0.5" stop-color="white"/><stop offset="0.75" stop-color="white" stop-opacity="0"/></linearGradient><linearGradient id="l1" x1="9.75" y1="17" x2="9.75" y2="23" gradientUnits="userSpaceOnUse"><stop stop-color="#FDC33B"/><stop offset="1" stop-color="#FCB13A"/></linearGradient><linearGradient id="l2" x1="14.83" y1="17" x2="14.83" y2="21" gradientUnits="userSpaceOnUse"><stop stop-color="#FDC33B"/><stop offset="1" stop-color="#FCB13A"/></linearGradient></defs></svg>
